{
  "accessors": [
    {
      "bufferView": 0,
      "componentType": 5125,
      "count": 2802,
      "type": "SCALAR"
    },
    {
      "bufferView": 1,
      "componentType": 5126,
      "count": 1015,
      "max": [
        0.319361567497253,
        0.25567239522934,
        1.27333116531372
      ],
      "min": [
        -0.286136895418167,
        -0.25567227602005,
        0.0
      ],
      "type": "VEC3"
    },
    {
      "bufferView": 2,
      "componentType": 5126,
      "count": 1015,
      "type": "VEC3"
    },
    {
      "bufferView": 3,
      "componentType": 5126,
      "count": 1015,
      "type": "VEC2"
    },
    {
      "bufferView": 4,
      "componentType": 5125,
      "count": 38664,
      "type": "SCALAR"
    },
    {
      "bufferView": 5,
      "componentType": 5126,
      "count": 13022,
      "max": [
        0.240129411220551,
        0.536934316158295,
        0.972717642784119
      ],
      "min": [
        -0.240129411220551,
        -0.53693425655365,
        -0.000985801219940186
      ],
      "type": "VEC3"
    },
    {
      "bufferView": 6,
      "componentType": 5126,
      "count": 13022,
      "type": "VEC3"
    },
    {
      "bufferView": 7,
      "componentType": 5126,
      "count": 13022,
      "type": "VEC2"
    }
  ],
  "asset": {
    "generator": "Adobe Substance 3D Painter 7.4.3",
    "version": "2.0"
  },
  "bufferViews": [
    {
      "buffer": 0,
      "byteLength": 11208,
      "target": 34963
    },
    {
      "buffer": 0,
      "byteLength": 12180,
      "byteOffset": 11208,
      "target": 34962
    },
    {
      "buffer": 0,
      "byteLength": 12180,
      "byteOffset": 23388,
      "target": 34962
    },
    {
      "buffer": 0,
      "byteLength": 8120,
      "byteOffset": 35568,
      "target": 34962
    },
    {
      "buffer": 0,
      "byteLength": 154656,
      "byteOffset": 43688,
      "target": 34963
    },
    {
      "buffer": 0,
      "byteLength": 156264,
      "byteOffset": 198344,
      "target": 34962
    },
    {
      "buffer": 0,
      "byteLength": 156264,
      "byteOffset": 354608,
      "target": 34962
    },
    {
      "buffer": 0,
      "byteLength": 104176,
      "byteOffset": 510872,
      "target": 34962
    }
  ],
  "buffers": [
    {
      "byteLength": 615048,
      "uri": "ASM - PBR Metallic Roughness.bin"
    }
  ],
  "images": [
    {
      "uri": "furniture.props_TEX_baseColor.png"
    },
    {
      "uri": "furniture.props_TEX_occlusionRoughnessMetallic.png"
    },
    {
      "uri": "furniture.props_TEX_normal.png"
    }
  ],
  "materials": [
    {
      "alphaMode": "OPAQUE",
      "name": "furniture.props_TEX",
      "normalTexture": {
        "index": 2
      },
      "occlusionTexture": {
        "index": 1
      },
      "pbrMetallicRoughness": {
        "baseColorTexture": {
          "index": 0
        },
        "metallicRoughnessTexture": {
          "index": 1
        }
      }
    }
  ],
  "meshes": [
    {
      "name": "Chair.props",
      "primitives": [
        {
          "attributes": {
            "NORMAL": 2,
            "POSITION": 1,
            "TEXCOORD_0": 3
          },
          "indices": 0,
          "material": 0,
          "mode": 4
        }
      ]
    },
    {
      "name": "cabinent.props",
      "primitives": [
        {
          "attributes": {
            "NORMAL": 6,
            "POSITION": 5,
            "TEXCOORD_0": 7
          },
          "indices": 4,
          "material": 0,
          "mode": 4
        }
      ]
    }
  ],
  "nodes": [
    {
      "children": [
        1,
        3
      ],
      "name": "RootNode"
    },
    {
      "children": [
        2
      ],
      "name": "Chair.props",
      "rotation": [
        -0.70710676908493,
        -4.21468477895814e-08,
        -4.21468477895814e-08,
        0.70710676908493
      ],
      "scale": [
        100.0,
        100.0,
        100.0
      ],
      "translation": [
        61.0185432434082,
        16.4030342102051,
        29.5027256011963
      ]
    },
    {
      "mesh": 0,
      "name": "Chair.props"
    },
    {
      "children": [
        4
      ],
      "name": "cabinent.props",
      "rotation": [
        -8.42936955791629e-08,
        0.70710676908493,
        0.70710676908493,
        2.24764544753953e-08
      ],
      "scale": [
        100.0,
        100.0,
        100.0
      ],
      "translation": [
        -69.1959762573242,
        15.5016231536865,
        -2.78924369812012
      ]
    },
    {
      "mesh": 1,
      "name": "cabinent.props"
    }
  ],
  "samplers": [
    {
      "magFilter": 9729,
      "minFilter": 9985,
      "wrapS": 10497,
      "wrapT": 10497
    }
  ],
  "scene": 0,
  "scenes": [
    {
      "name": "Scene",
      "nodes": [
        0
      ]
    }
  ],
  "textures": [
    {
      "sampler": 0,
      "source": 0
    },
    {
      "sampler": 0,
      "source": 1
    },
    {
      "sampler": 0,
      "source": 2
    }
  ]
}